<?xml version="1.0" encoding="UTF-8" standalone="no"?>
<svg version="1.1" width="490" height="670" xmlns="http://www.w3.org/2000/svg">

<path fill="#2b5df2" d="m 0,230 v -166 a500,500,0,0,1,490,0 v 166 h -490 z"/>
<path fill="#e20909" d="m 245,670 c -21.4,-29.7 -52.1,-47.5 -93,-62 c -70.7,-25 -150.6,-77.2 -152,-158 v -108 a48,56,0,0,0,0,-112 v -55   a500,500,0,0,1,130,-50.734 v 50.734 h 40 v -58.482   a500,500,0,0,1,150,0   v 58.482 h 40 v -50.734 a500,500,0,0,1,130,50.734   v 55 a48,56,0,0,0,0,112 v 108 c -1.4,80.8 -81.3,133 -152,158 c -40.9,14.5 -71.6,32.3 -93,62 z"/>


<g style="fill:none;stroke:#000;stroke-width:2" transform="scale(0.9) translate(-30,70)">
	<path fill="#fcef3c" d="   M330.2,283.2c-42.8-35.7-89.9-68.7-141.8-10.1L171.8,294l-1.4,9.3l-18.1,12.9l-6.5,7.2c-18.4-7.8-23.8-4.9-31.1-3.6   c6.8,2.3,10.9,2.2,17.7,8.2c-3.7,3.6-7.6,7.7-12.6,14c-11.4,0.1-14-11.3-20.3-18c0.7,12,4.4,22.5,16.6,28.7   c3.6,16.6,7.2,23.3,10.9,26.6c2.9,16.1,9.2,23.5,15.9,30.2l8,15.8l7.2,7.9l6.5,7.9l11.6-2.2l4.3-3.6l-2.2,12.2l7.2,12.9l13,10.8   l9.4,9.3l8,2.9l2.2,8.6l7.2-2.9c-5.2-14.7,3.7-11.3,11.6-9.3c-2.3-11.2,5.3-10,10.1-12.2c4.6-9.7,15.1-7.9,23.1-10.8l4.3-8.6   l0.7,40.2l-6.5,20.8l-4.3,12.9l15.2,0.7l2.9,2.9l31.8,0.7l2.9-6.5l-2.2-15.1l3.6-8.6v-18v-28.7l13-25.1h28.9   c12.3,11.4,24.6,5.3,36.9-2.2l4.3,12.9l0.7,26.6l-1.4,13.6l-8.7,17.2l-8,25.9l25.3-1.4l4.3-10.1l2.9-16.5l8-24.4l12.3-15.1   l5.1,19.4l-5.1,28.7l-8,13.6c0,0-5.8,7.2-1.4,7.9s34.7,1.4,34.7,1.4l-4.3-12.9l6.5-3.6v-49.6c9.1-18.7,15.6-32.5-5.1-44.5   c3.8-26.7,7.1-47-2.3-74.3c4,11.1,8.3,22.2,16.1,33.4c-0.7,19.5,6.1,26,13,32.3h4.3c4.1-19.5,0.2-29.8-7.2-35.9   c-13.9-15.4-21.2-34.7-20.3-55.3c11.2-43.6-14.6-74.7-45.6-21.5C392,289.7,370.5,291.1,330.2,283.2z"/>
	<path d="M208,313.4c-7.1,15.8,3.9,34.1,10,38.9c8.1,6.3,20,1.1,31.8-3.6 c4,3,8.2,5.7,16,4.9"/>
	<path d="M366.4,302.6c9.6-0.8,19.2-1.2,28.8-0.2c4.1,13.9,0.4,27.9-0.8,41.8 c-1.6-9.1-1.9-18.2-7.1-27.3"/>
	<path fill="#e20909" d="M429.3,289.7c32.7-37.6,21.8,5.5,20.3,23.7L429.3,289.7z"/>
	<path d="M184.8,355c6.7,2.7,9.6,11.5,12.3,20.8"/>
	<path d="M161,351.4c1,5.8,8.2,12.9,15.9,20.1c0.8,7.8,1.6,15.6,5.1,28.7"/>
	<path d="M148.7,327C148.9,327,149.2,327,148.7,327z"/>
	<path fill="black" d="M146.5,325.6c2.6,4.9,5.9,11.5,10.2,14.7c4.8,3.6,10.8,3.5,18,4.7   c0.3-6.2,0.4-12.5-0.7-18.7c-3.5-4.9-9-5.5-15.2-5C157,323.4,157.4,326.1,146.5,325.6z"/>
	<path fill="black" d="M136.9,377.5c4.4,1.6,8.7,2.6,13.1,1.5 C152.8,364,141.7,369.9,136.9,377.5z"/>
	<path d="M142.9,339.2c-3.5-4.1-7-8.8-10.5-10.4"/>
	<path d="M118.9,341.8c-0.9,3.4-2.5,5.3-2.1,11.1"/>
	<path d="M183.4,355C183.6,355,183.9,355,183.4,355z"/>
	<path d="M166.8,392.4c1.7,6.9,2.5,13.7-6.5,18"/>
	<path d="M152.3,424.7C152.5,424.7,152.8,424.7,152.3,424.7z"/>
	<path d="M153.7,425.4c13-12.1,14.8-2.1,20.3,0.7c11,1.9,18.6,5.7,17.4,14.4 c-0.7,5,1.8,9.3,8,12.9"/>
	<path d="M159.5,433.3c0.1-4.5,5.4-6.9,10.9-8.6"/>
	<path d="M229.7,380.9c-2.4,14.1-8.8,25.1,18.2,31.2 c6.7,6.1,20.4,22.1,29.7,37.1c7.6,12.3,11.4,23.3,12.8,33"/>
	<path d="M269.8,399.7c-5.7,5-9.3,10.8-21.3,13.2"/>
	<path d="M285.4,416.8c3.4,41.9,10.9,88.4-6.5,107"/>
	<path d="M269.5,508.7l5.1,2.2"/>
	<path d="M388.8,504.4C389.8,504.4,389.8,504.4,388.8,504.4z"/>
	<path d="M401.1,505.2v-0.7"/>
	<path d="M433.1,507.3h15.1"/>
	<path d="M443.8,447.7c6.9,4.9,4.6,8.6,2.2,12.2"/>
	<path d="M457.1,487.3c-3.9,1.4-7.2,17.9,2.6,7.8"/>
	<path d="M457.5,418.2h-4.3"/>
	<path d="M459,411.8c-11,24.4-44.3,21.1-57.1-25.9"/>
	<path d="M434.4,407.5C434.1,407.5,433.9,407.5,434.4,407.5z"/>
	<path d="M433.7,406.7c-13.6,8.7-24.7,2.3-32.9-21.5"/>
	<path d="M445.2,429c18,9.1,28.4,10.3,15.2-12.9"/>
	<path d="M436.8,451.3c-11.7-9.1-19.4-20.6-33.9-36.6 c1.3-21.2-13.4-18.4-25-23.1"/>
	<path d="M336.7,386.6c-0.5,8-4.4,13.1-13,14.4"/>
	<path d="M331.8,425.3c-2.6-9.1-8.5-17.2-7.3-25.1"/>
	<path d="M385.7,361.7c-13.1,35.1,46.3,27.2,44,9.1l-1-1h-1"/>
	<path d="M388.8,502.9l11.3,1"/>
	<path d="M303.9,448.1l-0.6,31c-6.7,4.2-9.3,4.4-12.3,5"/>
	<path d="M312,475.5c-3,9.5-2.8,19-2,28.4"/>
</g>

</svg>